HIERARCHY
ROOT Hips
{
	OFFSET 0.000000 0.000000 0.000000
	CHANNELS 6 Xposition Yposition Zposition Zrotation Yrotation Xrotation 
	JOINT LowerBack
	{
		OFFSET 0.000000 0.000000 0.000000
		CHANNELS 3 Zrotation Yrotation Xrotation
		JOINT Spine
		{
			OFFSET 0.028270 2.035590 -0.193380
			CHANNELS 3 Zrotation Yrotation Xrotation
			JOINT Spine1
			{
				OFFSET 0.056720 2.048850 -0.042750
				CHANNELS 3 Zrotation Yrotation Xrotation
				JOINT Neck
				{
					OFFSET 0.000000 0.000000 0.000000
					CHANNELS 3 Zrotation Yrotation Xrotation
					JOINT Neck1
					{
						OFFSET -0.054170 1.746240 0.172020
						CHANNELS 3 Zrotation Yrotation Xrotation
						JOINT Head
						{
							OFFSET 0.104070 1.761360 -0.123970
							CHANNELS 3 Zrotation Yrotation Xrotation
							End Site
							{
								OFFSET 0.000000 0.000000 0.000000
							}
						}
					}
				}
				JOINT LeftShoulder
				{
					OFFSET 0.000000 0.000000 0.000000
					CHANNELS 3 Zrotation Yrotation Xrotation
					JOINT LeftArm
					{
						OFFSET 3.362410 1.200890 -0.311210
						CHANNELS 3 Zrotation Yrotation Xrotation
						JOINT LeftForeArm
						{
							OFFSET 4.983000 -0.000000 -0.000000
							CHANNELS 3 Zrotation Yrotation Xrotation
							JOINT LeftHand
							{
								OFFSET 3.483560 -0.000000 -0.000000
								CHANNELS 3 Zrotation Yrotation Xrotation
								JOINT LeftFingerBase
								{
									OFFSET 0.000000 0.000000 0.000000
									CHANNELS 3 Zrotation Yrotation Xrotation
									JOINT LeftHandIndex1
									{
										OFFSET 0.715260 -0.000000 -0.000000
										CHANNELS 3 Zrotation Yrotation Xrotation
										End Site
										{
											OFFSET 0.000000 0.000000 0.000000
										}
									}
								}
								JOINT LThumb
								{
									OFFSET 0.000000 0.000000 0.000000
									CHANNELS 3 Zrotation Yrotation Xrotation
									End Site
									{
										OFFSET 0.000000 0.000000 0.000000
									}
								}
							}
						}
					}
				}
				JOINT RightShoulder
				{
					OFFSET 0.000000 0.000000 0.000000
					CHANNELS 3 Zrotation Yrotation Xrotation
					JOINT RightArm
					{
						OFFSET -3.136600 1.374050 -0.404650
						CHANNELS 3 Zrotation Yrotation Xrotation
						JOINT RightForeArm
						{
							OFFSET -5.241900 -0.000000 -0.000000
							CHANNELS 3 Zrotation Yrotation Xrotation
							JOINT RightHand
							{
								OFFSET -3.444170 -0.000000 -0.000000
								CHANNELS 3 Zrotation Yrotation Xrotation
								JOINT RightFingerBase
								{
									OFFSET 0.000000 0.000000 0.000000
									CHANNELS 3 Zrotation Yrotation Xrotation
									JOINT RightHandIndex1
									{
										OFFSET -0.622530 -0.000000 -0.000000
										CHANNELS 3 Zrotation Yrotation Xrotation
										End Site
										{
											OFFSET 0.000000 0.000000 0.000000
										}
									}
								}
								JOINT RThumb
								{
									OFFSET 0.000000 0.000000 0.000000
									CHANNELS 3 Zrotation Yrotation Xrotation
									End Site
									{
										OFFSET 0.000000 0.000000 0.000000
									}
								}
							}
						}
					}
				}
			}
		}
	}
}
}
MOTION
Frames: 12
Frame Time: 0.008333
10.870074 15.235863 1.984794 -165.618815 -81.273474 -147.366319 -4.747367 0.218346 3.296554 -1.522201 0.446221 -2.324219 -3.528419 0.374321 -0.296585 6.242269 -5.853028 -10.206364 -0.784970 0.025061 -1.358322 0.000000 0.000000 0.000000 -1.669205 14.819536 4.967401 -66.037753 22.893296 18.044225 -1.918443 -57.913171 -0.001550 -10.016545 14.633168 -1.295909 0.021913 -0.040838 0.000000 0.000000 0.000000 0.000000 0.000000 0.000000 0.000000 0.983779 0.668492 1.118027 55.630287 17.566422 8.657248 0.118564 85.567756 -0.026985 -4.743365 5.152044 -0.238484 0.119295 -0.475258 0.000000 0.000000 0.000000 0.000000 0.000000 0.000000 0.000000 
10.714157 15.211063 2.009783 -166.866091 -81.463029 -146.300296 -5.003023 0.119990 3.480978 -1.597736 0.354490 -2.295102 -3.613907 0.284550 -0.372145 6.418014 -5.852464 -10.202001 -0.813785 0.023189 -1.362667 0.000000 0.000000 0.000000 -1.852313 14.468807 4.986901 -65.874455 22.133649 18.204469 -1.939744 -57.821080 -0.001063 -10.166007 14.726292 -1.323607 0.022713 -0.038845 0.000000 0.000000 0.000000 0.000000 0.000000 0.000000 0.000000 1.236219 0.643330 1.135709 56.384673 16.856147 8.737138 0.130068 85.255198 -0.027203 -4.784033 5.297298 -0.246683 0.117781 -0.475915 0.000000 0.000000 0.000000 0.000000 0.000000 0.000000 0.000000 
10.560727 15.188533 2.034410 -168.131815 -81.672584 -145.188974 -5.222422 0.026413 3.660975 -1.665199 0.266197 -2.265653 -3.699873 0.198144 -0.442809 6.555713 -5.851012 -10.179260 -0.845981 0.020692 -1.361479 0.000000 0.000000 0.000000 -2.051046 14.085393 5.000587 -65.662956 21.251913 18.390921 -1.963792 -57.699716 -0.000634 -10.287947 14.819022 -1.347897 0.022929 -0.036527 0.000000 0.000000 0.000000 0.000000 0.000000 0.000000 0.000000 1.473413 0.609282 1.150559 57.178636 16.152058 8.792342 0.144760 84.842911 -0.027457 -4.827966 5.435502 -0.254786 0.115902 -0.475920 0.000000 0.000000 0.000000 0.000000 0.000000 0.000000 0.000000 
10.409906 15.168278 2.058691 -169.380326 -81.891723 -144.071028 -5.402356 -0.062481 3.832710 -1.723491 0.181277 -2.237252 -3.786024 0.114971 -0.509289 6.652225 -5.835298 -10.135467 -0.882523 0.017422 -1.353707 0.000000 0.000000 0.000000 -2.270068 13.673267 5.008256 -65.408788 20.269212 18.567817 -1.989620 -57.561203 -0.000279 -10.369864 14.905910 -1.366387 0.022459 -0.033835 0.000000 0.000000 0.000000 0.000000 0.000000 0.000000 0.000000 1.693728 0.579976 1.162508 58.008482 15.457016 8.822615 0.162417 84.325163 -0.027691 -4.866819 5.562883 -0.262193 0.113506 -0.475143 0.000000 0.000000 0.000000 0.000000 0.000000 0.000000 0.000000 
10.261690 15.150264 2.082975 -170.504145 -82.109130 -143.051049 -5.535165 -0.143348 3.989969 -1.770540 0.102915 -2.210342 -3.871048 0.038160 -0.566887 6.706655 -5.809331 -10.074608 -0.923165 0.013459 -1.340346 0.000000 0.000000 0.000000 -2.504547 13.255772 5.009269 -65.123915 19.174983 18.721228 -2.017117 -57.393808 -0.000025 -10.393435 14.978653 -1.375771 0.021126 -0.030663 0.000000 0.000000 0.000000 0.000000 0.000000 0.000000 0.000000 1.897321 0.552238 1.171539 58.863562 14.790550 8.833930 0.182951 83.693714 -0.027857 -4.894905 5.677339 -0.268502 0.110585 -0.473488 0.000000 0.000000 0.000000 0.000000 0.000000 0.000000 0.000000 
10.116102 15.134508 2.107353 -171.433021 -82.316695 -142.198377 -5.619143 -0.215067 4.128481 -1.805625 0.032277 -2.185624 -3.953834 -0.031166 -0.613953 6.720164 -5.771019 -9.999222 -0.967820 0.008851 -1.322067 0.000000 0.000000 0.000000 -2.750924 12.847087 5.003612 -64.819640 17.972318 18.826985 -2.045644 -57.195518 0.000099 -10.340994 15.032821 -1.373051 0.018785 -0.026936 0.000000 0.000000 0.000000 0.000000 0.000000 0.000000 0.000000 2.084937 0.529137 1.178213 59.736180 14.162461 8.827584 0.206057 82.944394 -0.027900 -4.905560 5.778496 -0.273215 0.107105 -0.470922 0.000000 0.000000 0.000000 0.000000 0.000000 0.000000 0.000000 
9.973216 15.121086 2.131862 -172.119827 -82.509679 -141.559200 -5.655849 -0.277776 4.244886 -1.828828 -0.030644 -2.163790 -4.033388 -0.093039 -0.649987 6.696026 -5.717804 -9.911680 -1.016232 0.003669 -1.299565 0.000000 0.000000 0.000000 -3.003399 12.457018 4.991510 -64.508017 16.668875 18.860624 -2.074378 -56.967138 0.000069 -10.196948 15.064883 -1.355925 0.015332 -0.022586 0.000000 0.000000 0.000000 0.000000 0.000000 0.000000 0.000000 2.258169 0.514111 1.183360 60.619690 13.578143 8.802763 0.231306 82.076538 -0.027780 -4.893388 5.868222 -0.276131 0.103063 -0.467482 0.000000 0.000000 0.000000 0.000000 0.000000 0.000000 0.000000 
9.833135 15.110148 2.156362 -172.542663 -82.686071 -141.154400 -5.649601 -0.332496 4.337257 -1.840949 -0.086673 -2.145414 -4.108771 -0.148293 -0.675807 6.638920 -5.647080 -9.814517 -1.067892 -0.001990 -1.273688 0.000000 0.000000 0.000000 -3.254855 12.090621 4.973532 -64.200349 15.276094 18.799054 -2.102257 -56.713225 -0.000140 -9.948451 15.073487 -1.322393 0.010706 -0.017565 0.000000 0.000000 0.000000 0.000000 0.000000 0.000000 0.000000 2.418511 0.510822 1.188201 61.509188 13.039002 8.756497 0.258203 81.092235 -0.027480 -4.855259 5.950810 -0.277148 0.098492 -0.463273 0.000000 0.000000 0.000000 0.000000 0.000000 0.000000 0.000000 
9.695991 15.101874 2.180574 -172.717199 -82.846392 -140.968067 -5.607990 -0.381276 4.405295 -1.843690 -0.137595 -2.131405 -4.179395 -0.198730 -0.695240 6.554465 -5.551947 -9.707838 -1.122368 -0.008071 -1.244613 0.000000 0.000000 0.000000 -3.496225 11.739281 4.950322 -63.908940 13.821739 18.612318 -2.127520 -56.446990 -0.000536 -9.586561 15.053409 -1.271157 0.004949 -0.011803 0.000000 0.000000 0.000000 0.000000 0.000000 0.000000 0.000000 2.567314 0.527381 1.194607 62.402348 12.536499 8.681720 0.286140 79.997966 -0.026985 -4.791311 6.032486 -0.276568 0.093451 -0.458472 0.000000 0.000000 0.000000 0.000000 0.000000 0.000000 0.000000 
9.561753 15.096326 2.204397 -172.632004 -82.992137 -141.004630 -5.533586 -0.425114 4.446478 -1.837491 -0.184317 -2.120942 -4.244042 -0.245185 -0.704162 6.449525 -5.445240 -9.600591 -1.177937 -0.014256 -1.215189 0.000000 0.000000 0.000000 -3.718495 11.429362 4.922601 -63.634856 12.284990 18.318425 -2.150130 -56.166497 -0.001190 -9.107939 15.017367 -1.203116 -0.002009 -0.005391 0.000000 0.000000 0.000000 0.000000 0.000000 0.000000 0.000000 2.706665 0.551440 1.202567 63.294073 12.084352 8.581618 0.314861 78.796210 -0.026326 -4.703883 6.120998 -0.274888 0.088098 -0.453231 0.000000 0.000000 0.000000 0.000000 0.000000 0.000000 0.000000 
9.430761 15.093774 2.227239 -172.378918 -83.127390 -141.178975 -5.439836 -0.467429 4.464772 -1.825672 -0.229857 -2.115992 -4.303127 -0.290747 -0.714206 6.329786 -5.308147 -9.485596 -1.234703 -0.020667 -1.183428 0.000000 0.000000 0.000000 -3.910137 11.114581 4.890899 -63.393208 10.738602 17.864809 -2.166347 -55.909247 -0.002052 -8.513608 14.948515 -1.117472 -0.009884 0.001808 -0.000000 0.000000 0.000000 0.000000 0.000000 0.000000 0.000000 2.836307 0.603795 1.215727 64.187050 11.650159 8.439525 0.343361 77.503628 -0.025573 -4.601856 6.225255 -0.272708 0.082548 -0.447844 0.000000 0.000000 0.000000 0.000000 0.000000 0.000000 0.000000 
9.302900 15.094217 2.248919 -171.984160 -83.255976 -141.458745 -5.330393 -0.509973 4.459961 -1.808934 -0.275862 -2.114911 -4.355691 -0.336939 -0.720529 6.202032 -5.156651 -9.372539 -1.290765 -0.026961 -1.152415 0.000000 0.000000 0.000000 -4.063320 10.824284 4.856009 -63.177246 9.156119 17.288614 -2.176416 -55.678127 -0.003195 -7.811565 14.860237 -1.017026 -0.018682 0.009671 -0.000000 0.000000 0.000000 0.000000 0.000000 0.000000 0.000000 2.958028 0.668539 1.233320 65.077379 11.246755 8.260535 0.371337 76.126392 -0.024786 -4.495089 6.353795 -0.271128 0.077036 -0.442476 0.000000 0.000000 0.000000 0.000000 0.000000 0.000000 0.000000 
